<svg width="13" height="20" viewBox="0 0 13 20" fill="none" xmlns="http://www.w3.org/2000/svg">
<path d="M6.29196 3.0251C7.47048 3.0251 8.4291 3.98373 8.4291 5.16224C8.4291 6.33977 7.47023 7.29839 6.29196 7.29839C5.11419 7.29839 4.15532 6.33977 4.15532 5.16224C4.15507 3.98348 5.11443 3.0251 6.29196 3.0251ZM6.29196 10.322C9.13868 10.322 11.4537 8.00773 11.4537 5.16224C11.4537 2.31528 9.13893 0 6.29196 0C3.44549 0 1.13021 2.31552 1.13021 5.16224C1.13021 8.00773 3.44549 10.322 6.29196 10.322ZM8.38018 14.5323C9.44204 14.2905 10.4554 13.8709 11.3774 13.2913C11.7168 13.0777 11.9575 12.7381 12.0465 12.3471C12.1355 11.9561 12.0655 11.5457 11.852 11.2063C11.7464 11.038 11.6086 10.8923 11.4466 10.7773C11.2846 10.6624 11.1016 10.5805 10.9079 10.5363C10.7142 10.4922 10.5138 10.4866 10.3179 10.52C10.1221 10.5534 9.93482 10.6251 9.76673 10.7309C7.65207 12.0604 4.93037 12.0594 2.81744 10.7309C2.64938 10.625 2.46209 10.5534 2.26629 10.52C2.07049 10.4865 1.87002 10.4921 1.67636 10.5362C1.48271 10.5804 1.29965 10.6623 1.13768 10.7773C0.975712 10.8922 0.838003 11.038 0.732434 11.2063C0.51882 11.5456 0.448741 11.9559 0.537608 12.3469C0.626474 12.7379 0.867009 13.0776 1.20631 13.2913C2.12823 13.8707 3.14137 14.2902 4.203 14.5323L1.31749 17.4183C1.03392 17.702 0.874659 18.0867 0.874728 18.4878C0.874798 18.8888 1.0342 19.2735 1.31786 19.5571C1.60153 19.8406 1.98622 19.9999 2.38731 19.9998C2.7884 19.9997 3.17304 19.8403 3.45661 19.5567L6.29147 16.7213L9.12806 19.5569C9.26831 19.6974 9.43488 19.8088 9.61823 19.8848C9.80159 19.9609 9.99813 20 10.1966 20C10.3951 20 10.5917 19.9609 10.775 19.8848C10.9584 19.8088 11.1249 19.6974 11.2652 19.5569C11.4059 19.4167 11.5175 19.2501 11.5936 19.0666C11.6698 18.8832 11.709 18.6865 11.709 18.4879C11.709 18.2892 11.6698 18.0926 11.5936 17.9091C11.5175 17.7257 11.4059 17.559 11.2652 17.4188L8.38018 14.5323Z" fill="#EE8208"/>
</svg>
