<svg width="65" height="50" viewBox="0 0 65 50" fill="none" xmlns="http://www.w3.org/2000/svg">
<path fill-rule="evenodd" clip-rule="evenodd" d="M33.2046 4.25644C34.3299 3.13067 35.8564 2.49817 37.4482 2.49817C39.0399 2.49817 40.5664 3.13063 41.6916 4.25636C42.8174 5.38164 43.45 6.90829 43.45 8.49999C43.45 10.0917 42.8175 11.6183 41.6917 12.7435C41.6917 12.7436 41.6917 12.7435 41.6917 12.7435L32.8517 21.5835C32.6565 21.7788 32.3399 21.7788 32.1446 21.5835L23.3046 12.7435C20.961 10.3999 20.961 6.60009 23.3046 4.25644C25.6483 1.91279 29.4481 1.91279 31.7917 4.25644L32.4982 4.96289L33.2046 4.25644C33.2046 4.25641 33.2046 4.25647 33.2046 4.25644ZM37.4482 3.49817C36.1217 3.49817 34.8496 4.02528 33.9118 4.96346L32.8517 6.02355C32.758 6.11732 32.6308 6.16999 32.4982 6.16999C32.3656 6.16999 32.2384 6.11732 32.1446 6.02355L31.0846 4.96355C29.1315 3.01042 25.9648 3.01042 24.0117 4.96355C22.0586 6.91667 22.0586 10.0833 24.0117 12.0364L32.4982 20.5229L40.9846 12.0364C41.9228 11.0987 42.45 9.82648 42.45 8.49999C42.45 7.17351 41.9229 5.90138 40.9847 4.96363C40.0469 4.02544 38.7747 3.49817 37.4482 3.49817Z" fill="#414141"/>
<path d="M1.81023 45C1.72223 45 1.65423 44.972 1.60623 44.916C1.55823 44.86 1.53423 44.792 1.53423 44.712V36.888C1.53423 36.8 1.55823 36.732 1.60623 36.684C1.66223 36.628 1.73023 36.6 1.81023 36.6H2.43423C2.51423 36.6 2.57823 36.628 2.62623 36.684C2.68223 36.732 2.71023 36.8 2.71023 36.888V43.092L7.18623 36.768C7.21023 36.736 7.24223 36.7 7.28223 36.66C7.33023 36.62 7.39823 36.6 7.48623 36.6H8.07423C8.15423 36.6 8.21823 36.628 8.26623 36.684C8.32223 36.732 8.35023 36.8 8.35023 36.888V44.724C8.35023 44.804 8.32223 44.872 8.26623 44.928C8.21823 44.976 8.15423 45 8.07423 45H7.46223C7.38223 45 7.31423 44.976 7.25823 44.928C7.20223 44.872 7.17423 44.804 7.17423 44.724V38.568L2.71023 44.832C2.69423 44.856 2.66223 44.892 2.61423 44.94C2.56623 44.98 2.49823 45 2.41023 45H1.81023ZM12.4565 45.12C11.9845 45.12 11.5845 45.064 11.2565 44.952C10.9365 44.832 10.6765 44.684 10.4765 44.508C10.2845 44.324 10.1445 44.136 10.0565 43.944C9.96848 43.744 9.92048 43.56 9.91248 43.392C9.91248 43.32 9.93648 43.264 9.98448 43.224C10.0325 43.176 10.0885 43.152 10.1525 43.152H10.7165C10.7885 43.152 10.8485 43.172 10.8965 43.212C10.9445 43.244 10.9805 43.304 11.0045 43.392C11.1005 43.696 11.2845 43.908 11.5565 44.028C11.8285 44.148 12.1605 44.208 12.5525 44.208C12.8085 44.208 13.0445 44.176 13.2605 44.112C13.4765 44.04 13.6445 43.928 13.7645 43.776C13.8925 43.624 13.9565 43.436 13.9565 43.212C13.9565 42.884 13.8605 42.636 13.6685 42.468C13.4845 42.3 13.1965 42.216 12.8045 42.216H12.1445C12.0645 42.216 12.0005 42.192 11.9525 42.144C11.9045 42.096 11.8805 42.032 11.8805 41.952V41.628C11.8805 41.556 11.9045 41.496 11.9525 41.448C12.0005 41.392 12.0645 41.364 12.1445 41.364H12.7325C13.0605 41.364 13.3125 41.3 13.4885 41.172C13.6645 41.044 13.7525 40.84 13.7525 40.56C13.7525 40.392 13.7125 40.232 13.6325 40.08C13.5525 39.928 13.4165 39.804 13.2245 39.708C13.0405 39.604 12.7845 39.552 12.4565 39.552C11.9925 39.552 11.6645 39.632 11.4725 39.792C11.2885 39.944 11.1565 40.172 11.0765 40.476C11.0445 40.564 11.0045 40.624 10.9565 40.656C10.9165 40.688 10.8565 40.704 10.7765 40.704H10.2365C10.1645 40.704 10.1045 40.684 10.0565 40.644C10.0085 40.604 9.98448 40.548 9.98448 40.476C9.99248 40.236 10.0445 40.008 10.1405 39.792C10.2445 39.576 10.3965 39.38 10.5965 39.204C10.8045 39.028 11.0605 38.892 11.3645 38.796C11.6765 38.692 12.0405 38.64 12.4565 38.64C13.0565 38.64 13.5285 38.732 13.8725 38.916C14.2245 39.1 14.4725 39.328 14.6165 39.6C14.7685 39.864 14.8445 40.128 14.8445 40.392C14.8445 40.704 14.7925 40.964 14.6885 41.172C14.5925 41.38 14.4005 41.556 14.1125 41.7C14.4725 41.836 14.7205 42.04 14.8565 42.312C14.9925 42.584 15.0645 42.9 15.0725 43.26C15.0805 43.676 14.9685 44.02 14.7365 44.292C14.5125 44.564 14.2045 44.772 13.8125 44.916C13.4205 45.052 12.9685 45.12 12.4565 45.12ZM19.0651 45.12C18.4491 45.12 17.9331 45.004 17.5171 44.772C17.1091 44.532 16.7971 44.196 16.5811 43.764C16.3731 43.324 16.2611 42.816 16.2451 42.24C16.2371 42 16.2331 41.76 16.2331 41.52C16.2331 41.28 16.2371 41.04 16.2451 40.8C16.2451 40.072 16.3051 39.468 16.4251 38.988C16.5451 38.508 16.7251 38.116 16.9651 37.812C17.2131 37.5 17.5251 37.244 17.9011 37.044C18.2771 36.844 18.7211 36.672 19.2331 36.528C19.7451 36.376 20.3291 36.216 20.9851 36.048C21.0571 36.032 21.1251 36.044 21.1891 36.084C21.2611 36.124 21.3011 36.18 21.3091 36.252L21.4051 36.744C21.4211 36.816 21.4091 36.88 21.3691 36.936C21.3371 36.992 21.2851 37.028 21.2131 37.044C20.6131 37.196 20.0891 37.328 19.6411 37.44C19.1931 37.552 18.8171 37.684 18.5131 37.836C18.2091 37.98 17.9651 38.168 17.7811 38.4C17.5971 38.632 17.4691 38.94 17.3971 39.324C17.3331 39.708 17.3131 40.2 17.3371 40.8L17.0731 40.692C17.1131 40.396 17.2371 40.128 17.4451 39.888C17.6611 39.64 17.9291 39.44 18.2491 39.288C18.5691 39.136 18.9091 39.06 19.2691 39.06C19.8211 39.06 20.2851 39.176 20.6611 39.408C21.0451 39.64 21.3371 39.956 21.5371 40.356C21.7451 40.756 21.8611 41.216 21.8851 41.736C21.9011 42.008 21.9011 42.244 21.8851 42.444C21.8611 42.964 21.7411 43.428 21.5251 43.836C21.3091 44.236 20.9971 44.552 20.5891 44.784C20.1811 45.008 19.6731 45.12 19.0651 45.12ZM19.0651 44.232C19.5691 44.232 19.9691 44.076 20.2651 43.764C20.5611 43.452 20.7171 42.996 20.7331 42.396C20.7411 42.316 20.7451 42.224 20.7451 42.12C20.7451 42.016 20.7411 41.908 20.7331 41.796C20.7171 41.188 20.5611 40.728 20.2651 40.416C19.9771 40.104 19.6131 39.948 19.1731 39.948C18.6691 39.948 18.2531 40.104 17.9251 40.416C17.5971 40.728 17.4211 41.188 17.3971 41.796C17.3891 41.908 17.3851 42.016 17.3851 42.12C17.3851 42.224 17.3891 42.316 17.3971 42.396C17.4211 42.996 17.5811 43.452 17.8771 43.764C18.1731 44.076 18.5691 44.232 19.0651 44.232ZM23.6858 47.28C23.6058 47.28 23.5378 47.252 23.4818 47.196C23.4338 47.148 23.4098 47.084 23.4098 47.004V39.036C23.4098 38.956 23.4338 38.892 23.4818 38.844C23.5378 38.788 23.6058 38.76 23.6858 38.76H24.2378C24.3178 38.76 24.3818 38.788 24.4298 38.844C24.4858 38.892 24.5138 38.956 24.5138 39.036V39.564C24.7058 39.3 24.9618 39.08 25.2818 38.904C25.6018 38.728 26.0018 38.64 26.4818 38.64C26.9298 38.64 27.3098 38.716 27.6218 38.868C27.9418 39.02 28.2018 39.228 28.4018 39.492C28.6098 39.756 28.7658 40.056 28.8698 40.392C28.9738 40.728 29.0298 41.088 29.0378 41.472C29.0458 41.6 29.0498 41.736 29.0498 41.88C29.0498 42.024 29.0458 42.16 29.0378 42.288C29.0298 42.664 28.9738 43.024 28.8698 43.368C28.7658 43.704 28.6098 44.004 28.4018 44.268C28.2018 44.524 27.9418 44.732 27.6218 44.892C27.3098 45.044 26.9298 45.12 26.4818 45.12C26.0178 45.12 25.6258 45.036 25.3058 44.868C24.9938 44.692 24.7378 44.476 24.5378 44.22V47.004C24.5378 47.084 24.5138 47.148 24.4658 47.196C24.4178 47.252 24.3498 47.28 24.2618 47.28H23.6858ZM26.2298 44.148C26.6458 44.148 26.9698 44.06 27.2018 43.884C27.4418 43.7 27.6138 43.464 27.7178 43.176C27.8218 42.88 27.8818 42.564 27.8978 42.228C27.9058 41.996 27.9058 41.764 27.8978 41.532C27.8818 41.196 27.8218 40.884 27.7178 40.596C27.6138 40.3 27.4418 40.064 27.2018 39.888C26.9698 39.704 26.6458 39.612 26.2298 39.612C25.8378 39.612 25.5178 39.704 25.2698 39.888C25.0298 40.072 24.8498 40.308 24.7298 40.596C24.6178 40.876 24.5538 41.164 24.5378 41.46C24.5298 41.588 24.5258 41.74 24.5258 41.916C24.5258 42.092 24.5298 42.248 24.5378 42.384C24.5458 42.664 24.6098 42.94 24.7298 43.212C24.8578 43.484 25.0458 43.708 25.2938 43.884C25.5418 44.06 25.8538 44.148 26.2298 44.148ZM32.2862 45.12C31.8862 45.12 31.5222 45.04 31.1942 44.88C30.8662 44.72 30.6022 44.504 30.4022 44.232C30.2022 43.96 30.1022 43.652 30.1022 43.308C30.1022 42.756 30.3262 42.316 30.7742 41.988C31.2222 41.66 31.8062 41.444 32.5262 41.34L34.3142 41.088V40.74C34.3142 40.356 34.2022 40.056 33.9782 39.84C33.7622 39.624 33.4062 39.516 32.9102 39.516C32.5502 39.516 32.2582 39.588 32.0342 39.732C31.8182 39.876 31.6662 40.06 31.5782 40.284C31.5302 40.404 31.4462 40.464 31.3262 40.464H30.7862C30.6982 40.464 30.6302 40.44 30.5822 40.392C30.5422 40.336 30.5222 40.272 30.5222 40.2C30.5222 40.08 30.5662 39.932 30.6542 39.756C30.7502 39.58 30.8942 39.408 31.0862 39.24C31.2782 39.072 31.5222 38.932 31.8182 38.82C32.1222 38.7 32.4902 38.64 32.9222 38.64C33.4022 38.64 33.8062 38.704 34.1342 38.832C34.4622 38.952 34.7182 39.116 34.9022 39.324C35.0942 39.532 35.2302 39.768 35.3102 40.032C35.3982 40.296 35.4422 40.564 35.4422 40.836V44.724C35.4422 44.804 35.4142 44.872 35.3582 44.928C35.3102 44.976 35.2462 45 35.1662 45H34.6142C34.5262 45 34.4582 44.976 34.4102 44.928C34.3622 44.872 34.3382 44.804 34.3382 44.724V44.208C34.2342 44.352 34.0942 44.496 33.9182 44.64C33.7422 44.776 33.5222 44.892 33.2582 44.988C32.9942 45.076 32.6702 45.12 32.2862 45.12ZM32.5382 44.22C32.8662 44.22 33.1662 44.152 33.4382 44.016C33.7102 43.872 33.9222 43.652 34.0742 43.356C34.2342 43.06 34.3142 42.688 34.3142 42.24V41.904L32.9222 42.108C32.3542 42.188 31.9262 42.324 31.6382 42.516C31.3502 42.7 31.2062 42.936 31.2062 43.224C31.2062 43.448 31.2702 43.636 31.3982 43.788C31.5342 43.932 31.7022 44.04 31.9022 44.112C32.1102 44.184 32.3222 44.22 32.5382 44.22ZM37.4433 45C37.3633 45 37.2953 44.976 37.2393 44.928C37.1913 44.872 37.1673 44.804 37.1673 44.724V39.036C37.1673 38.956 37.1913 38.892 37.2393 38.844C37.2953 38.788 37.3633 38.76 37.4433 38.76H38.0193C38.0993 38.76 38.1633 38.788 38.2113 38.844C38.2593 38.892 38.2833 38.956 38.2833 39.036V41.34H41.5593V39.036C41.5593 38.956 41.5833 38.892 41.6313 38.844C41.6873 38.788 41.7553 38.76 41.8353 38.76H42.3993C42.4793 38.76 42.5433 38.788 42.5913 38.844C42.6473 38.892 42.6753 38.956 42.6753 39.036V44.724C42.6753 44.804 42.6473 44.872 42.5913 44.928C42.5433 44.976 42.4793 45 42.3993 45H41.8353C41.7553 45 41.6873 44.976 41.6313 44.928C41.5833 44.872 41.5593 44.804 41.5593 44.724V42.3H38.2833V44.724C38.2833 44.804 38.2593 44.872 38.2113 44.928C38.1633 44.976 38.0993 45 38.0193 45H37.4433ZM44.7558 45C44.6758 45 44.6078 44.976 44.5518 44.928C44.5038 44.872 44.4798 44.804 44.4798 44.724V39.036C44.4798 38.956 44.5038 38.892 44.5518 38.844C44.6078 38.788 44.6758 38.76 44.7558 38.76H45.3318C45.4118 38.76 45.4758 38.788 45.5238 38.844C45.5718 38.892 45.5958 38.956 45.5958 39.036V41.34H48.8718V39.036C48.8718 38.956 48.8958 38.892 48.9438 38.844C48.9998 38.788 49.0678 38.76 49.1478 38.76H49.7118C49.7918 38.76 49.8558 38.788 49.9038 38.844C49.9598 38.892 49.9878 38.956 49.9878 39.036V44.724C49.9878 44.804 49.9598 44.872 49.9038 44.928C49.8558 44.976 49.7918 45 49.7118 45H49.1478C49.0678 45 48.9998 44.976 48.9438 44.928C48.8958 44.872 48.8718 44.804 48.8718 44.724V42.3H45.5958V44.724C45.5958 44.804 45.5718 44.872 45.5238 44.928C45.4758 44.976 45.4118 45 45.3318 45H44.7558ZM54.3483 45.12C53.7403 45.12 53.2323 45.004 52.8243 44.772C52.4163 44.54 52.1043 44.22 51.8883 43.812C51.6723 43.396 51.5523 42.924 51.5283 42.396C51.5203 42.26 51.5163 42.088 51.5163 41.88C51.5163 41.664 51.5203 41.492 51.5283 41.364C51.5523 40.828 51.6723 40.356 51.8883 39.948C52.1123 39.54 52.4283 39.22 52.8363 38.988C53.2443 38.756 53.7483 38.64 54.3483 38.64C54.9483 38.64 55.4523 38.756 55.8603 38.988C56.2683 39.22 56.5803 39.54 56.7963 39.948C57.0203 40.356 57.1443 40.828 57.1683 41.364C57.1763 41.492 57.1803 41.664 57.1803 41.88C57.1803 42.088 57.1763 42.26 57.1683 42.396C57.1443 42.924 57.0243 43.396 56.8083 43.812C56.5923 44.22 56.2803 44.54 55.8723 44.772C55.4643 45.004 54.9563 45.12 54.3483 45.12ZM54.3483 44.196C54.8443 44.196 55.2403 44.04 55.5363 43.728C55.8323 43.408 55.9923 42.944 56.0163 42.336C56.0243 42.216 56.0283 42.064 56.0283 41.88C56.0283 41.696 56.0243 41.544 56.0163 41.424C55.9923 40.816 55.8323 40.356 55.5363 40.044C55.2403 39.724 54.8443 39.564 54.3483 39.564C53.8523 39.564 53.4523 39.724 53.1483 40.044C52.8523 40.356 52.6963 40.816 52.6803 41.424C52.6723 41.544 52.6683 41.696 52.6683 41.88C52.6683 42.064 52.6723 42.216 52.6803 42.336C52.6963 42.944 52.8523 43.408 53.1483 43.728C53.4523 44.04 53.8523 44.196 54.3483 44.196ZM61.1669 45.12C60.3429 45.12 59.6869 44.868 59.1989 44.364C58.7109 43.852 58.4429 43.156 58.3949 42.276C58.3869 42.172 58.3829 42.04 58.3829 41.88C58.3829 41.712 58.3869 41.576 58.3949 41.472C58.4269 40.904 58.5589 40.408 58.7909 39.984C59.0229 39.552 59.3389 39.22 59.7389 38.988C60.1469 38.756 60.6229 38.64 61.1669 38.64C61.7749 38.64 62.2829 38.768 62.6909 39.024C63.1069 39.28 63.4229 39.644 63.6389 40.116C63.8549 40.588 63.9629 41.14 63.9629 41.772V41.976C63.9629 42.064 63.9349 42.132 63.8789 42.18C63.8309 42.228 63.7669 42.252 63.6869 42.252H59.5349C59.5349 42.26 59.5349 42.276 59.5349 42.3C59.5349 42.324 59.5349 42.344 59.5349 42.36C59.5509 42.688 59.6229 42.996 59.7509 43.284C59.8789 43.564 60.0629 43.792 60.3029 43.968C60.5429 44.144 60.8309 44.232 61.1669 44.232C61.4549 44.232 61.6949 44.188 61.8869 44.1C62.0789 44.012 62.2349 43.916 62.3549 43.812C62.4749 43.7 62.5549 43.616 62.5949 43.56C62.6669 43.456 62.7229 43.396 62.7629 43.38C62.8029 43.356 62.8669 43.344 62.9549 43.344H63.5309C63.6109 43.344 63.6749 43.368 63.7229 43.416C63.7789 43.456 63.8029 43.516 63.7949 43.596C63.7869 43.716 63.7229 43.864 63.6029 44.04C63.4829 44.208 63.3109 44.376 63.0869 44.544C62.8629 44.712 62.5909 44.852 62.2709 44.964C61.9509 45.068 61.5829 45.12 61.1669 45.12ZM59.5349 41.424H62.8229V41.388C62.8229 41.028 62.7549 40.708 62.6189 40.428C62.4909 40.148 62.3029 39.928 62.0549 39.768C61.8069 39.6 61.5109 39.516 61.1669 39.516C60.8229 39.516 60.5269 39.6 60.2789 39.768C60.0389 39.928 59.8549 40.148 59.7269 40.428C59.5989 40.708 59.5349 41.028 59.5349 41.388V41.424Z" fill="#414141"/>
</svg>
